<?xml version="1.0" standalone="no"?>
<!DOCTYPE svg PUBLIC "-//W3C//DTD SVG 20010904//EN"
 "http://www.w3.org/TR/2001/REC-SVG-20010904/DTD/svg10.dtd">
<svg version="1.0" xmlns="http://www.w3.org/2000/svg"
 width="1509.000000pt" height="1509.000000pt" viewBox="0 0 1509.000000 1509.000000"
 preserveAspectRatio="xMidYMid meet">
<metadata>
Created by potrace 1.14, written by Peter Selinger 2001-2017
</metadata>
<g transform="translate(0.000000,1509.000000) scale(0.100000,-0.100000)"
fill="#000000" stroke="none">
<path d="M6698 14562 c-96 -188 -291 -566 -618 -1207 -62 -121 -154 -301 -205
-400 -353 -689 -424 -828 -421 -832 3 -4 454 -55 1136 -128 74 -8 200 -22 280
-30 80 -9 220 -16 312 -16 l167 0 143 91 c304 194 593 381 602 390 9 9 -13 48
-424 745 -126 215 -243 415 -260 445 -17 30 -40 71 -51 90 -12 19 -46 78 -76
130 -31 52 -63 106 -72 120 -9 14 -21 34 -27 45 -6 11 -87 151 -181 310 -93
160 -183 313 -199 342 l-30 52 -76 -147z"/>
<path d="M8220 11783 c-244 -147 -514 -301 -557 -319 -20 -9 -81 -25 -136 -37
l-100 -22 -246 22 c-135 12 -349 32 -476 43 -126 11 -252 23 -280 25 -27 3
-198 19 -380 35 -181 17 -400 37 -485 46 -85 9 -199 17 -252 18 l-97 1 -36
-35 c-24 -23 -68 -98 -129 -220 -51 -102 -135 -266 -186 -365 -332 -646 -459
-895 -497 -976 l-31 -66 107 -11 c58 -6 212 -22 341 -36 256 -27 397 -41 860
-86 168 -16 420 -41 560 -55 140 -13 487 -47 770 -75 283 -28 587 -58 675 -67
276 -30 248 -36 485 96 113 62 420 235 683 384 372 210 477 273 472 286 -6 15
-234 413 -264 461 -9 14 -21 34 -27 45 -10 19 -69 121 -297 515 -49 85 -117
203 -151 263 -78 138 -76 134 -109 190 -15 26 -31 47 -35 46 -4 0 -86 -48
-182 -106z"/>
<path d="M9390 9729 c-663 -375 -1101 -615 -1170 -643 -25 -10 -99 -28 -165
-41 l-120 -23 -175 19 c-1009 109 -1408 153 -1965 218 -494 58 -807 94 -1050
122 -148 17 -342 39 -430 49 l-160 19 -50 -24 c-55 -27 -56 -28 -127 -164
-165 -316 -340 -657 -508 -986 -73 -143 -171 -334 -217 -424 -46 -90 -83 -164
-81 -166 2 -1 53 -7 113 -14 61 -6 164 -18 230 -26 66 -8 230 -28 365 -45 345
-42 887 -108 1760 -215 201 -24 574 -69 830 -100 256 -30 501 -59 545 -65 139
-18 406 -48 890 -100 384 -42 480 -49 525 -41 43 7 81 26 175 88 66 44 194
128 285 188 91 60 359 237 595 393 237 157 548 363 692 459 l262 173 -62 107
c-35 60 -66 115 -70 123 -4 8 -17 31 -28 50 -18 30 -170 292 -227 390 -11 19
-69 121 -130 225 -60 105 -119 206 -130 225 -117 207 -195 340 -201 339 -3 0
-94 -50 -201 -110z"/>
<path d="M10608 7772 c-1006 -666 -1862 -1227 -1913 -1254 -18 -9 -81 -30
-141 -45 l-109 -28 -145 16 c-80 9 -208 24 -285 33 -222 25 -748 85 -890 101
-71 8 -188 21 -260 30 -71 8 -290 33 -485 55 -195 22 -474 54 -620 70 -146 17
-461 53 -700 80 -239 27 -572 65 -740 84 -168 19 -424 49 -570 65 -146 17
-404 46 -574 66 -170 19 -310 34 -311 32 -5 -5 -134 -254 -280 -542 -87 -170
-212 -413 -277 -540 -247 -482 -313 -614 -308 -618 3 -3 66 -12 140 -22 125
-15 910 -118 990 -129 19 -3 357 -48 750 -101 393 -52 832 -111 975 -130 279
-37 773 -103 1210 -160 149 -19 320 -42 380 -50 61 -8 283 -37 495 -64 734
-95 1256 -162 1405 -181 510 -66 466 -63 588 -45 61 9 120 21 131 27 21 11
227 170 521 401 82 65 211 166 285 225 74 58 404 320 734 581 329 262 651 517
715 568 64 50 138 111 165 135 l49 44 -20 30 c-11 16 -59 97 -106 179 -47 83
-109 191 -138 240 -28 50 -59 104 -69 120 -9 17 -42 73 -72 125 -30 52 -116
201 -190 330 -183 318 -202 350 -208 349 -3 0 -57 -34 -122 -77z"/>
<path d="M0 2015 l0 -785 185 0 185 0 0 310 0 310 228 2 227 3 0 170 0 170
-227 3 -227 2 1 135 1 135 296 2 296 3 0 160 0 160 -482 3 -483 2 0 -785z"/>
<path d="M2949 2789 c-171 -24 -335 -135 -414 -281 -34 -63 -65 -187 -65 -264
0 -198 95 -356 263 -439 42 -21 77 -39 77 -41 0 -1 -76 -121 -168 -266 l-168
-263 200 -3 c110 -1 206 0 213 3 7 2 87 117 178 255 l164 250 86 0 85 0 0
-255 0 -255 195 0 195 0 0 785 0 786 -392 -2 c-216 -1 -418 -6 -449 -10z m461
-520 l0 -201 -232 4 c-227 3 -234 4 -278 28 -61 34 -90 91 -90 180 0 106 40
161 130 179 25 5 141 9 258 10 l212 1 0 -201z"/>
<path d="M4900 2788 c-214 -23 -393 -131 -471 -284 -32 -65 -34 -73 -34 -173
0 -97 2 -111 29 -164 81 -159 278 -262 609 -317 241 -40 299 -70 301 -153 2
-80 -45 -120 -156 -136 -89 -13 -294 -4 -345 15 -52 19 -98 70 -114 126 -6 24
-15 54 -18 68 l-8 25 -156 3 -157 3 0 -33 c1 -101 53 -244 121 -328 51 -64
161 -131 274 -170 89 -29 115 -34 235 -37 110 -4 153 -1 235 16 188 39 338
139 402 270 25 50 28 67 28 157 0 95 -2 103 -37 176 -46 92 -131 176 -233 230
-85 44 -150 64 -275 84 -151 24 -307 64 -342 87 -17 12 -41 37 -51 55 -46 78
14 130 183 160 77 13 106 14 182 4 129 -16 189 -47 222 -114 14 -29 26 -60 26
-70 0 -17 13 -18 165 -18 l166 0 -6 38 c-25 147 -63 230 -142 313 -127 134
-363 196 -633 167z"/>
<path d="M5853 2792 c-23 -3 -23 -4 -23 -183 l0 -179 200 0 200 0 2 -597 3
-598 193 -3 192 -2 0 600 0 600 207 2 208 3 0 178 c1 97 -2 177 -5 178 -20 2
-1160 3 -1177 1z"/>
<path d="M8468 2792 l-38 -3 0 -780 0 -779 185 0 185 0 0 310 0 310 228 2 227
3 0 170 0 170 -227 3 -228 2 0 135 0 135 300 0 300 0 -2 161 -3 162 -445 1
c-245 1 -462 0 -482 -2z"/>
<path d="M9550 2015 l0 -785 185 0 185 0 0 310 0 310 228 2 227 3 0 170 0 170
-226 5 -226 5 -1 132 -1 133 297 2 297 3 0 160 0 160 -482 3 -483 2 0 -785z"/>
<path d="M11235 2789 c-190 -28 -373 -132 -495 -282 -179 -219 -224 -538 -114
-799 74 -176 219 -327 392 -406 123 -57 218 -75 362 -70 145 6 236 31 359 101
88 50 213 167 266 251 162 255 167 571 14 834 -48 80 -189 220 -274 270 -155
91 -335 126 -510 101z m211 -383 c257 -68 387 -343 275 -581 -56 -122 -177
-213 -309 -234 -219 -35 -432 118 -473 341 -53 290 225 549 507 474z"/>
<path d="M12708 2790 c-275 -46 -466 -250 -485 -515 -13 -199 77 -365 253
-464 44 -25 81 -46 83 -47 2 -2 -71 -120 -163 -263 -91 -143 -166 -262 -166
-265 0 -9 403 -7 416 2 6 4 78 108 159 232 81 124 156 235 168 248 18 19 30
22 99 22 l78 0 0 -255 0 -255 195 0 c179 0 195 1 195 18 1 16 0 1122 0 1410
l0 142 -392 -1 c-216 -1 -414 -5 -440 -9z m452 -520 l0 -200 -205 0 c-239 0
-293 9 -339 54 -81 82 -72 266 16 312 55 29 84 32 311 33 l217 1 0 -200z"/>
<path d="M13873 2793 l-163 -3 0 -780 0 -780 375 0 c475 0 533 10 697 117 276
181 386 629 246 1007 -91 248 -264 390 -520 426 -81 12 -385 18 -635 13z m542
-397 c194 -66 282 -173 293 -358 16 -289 -173 -448 -533 -448 l-105 0 0 421 0
422 133 -5 c108 -5 147 -10 212 -32z"/>
<path d="M1142 2016 c-232 -426 -422 -777 -422 -780 0 -3 99 -6 219 -6 177 0
222 3 234 14 8 8 29 52 47 98 18 46 39 90 47 98 12 13 55 15 285 13 149 -2
279 -5 289 -8 10 -3 38 -41 63 -85 25 -43 56 -90 68 -105 l23 -26 217 3 216 3
-225 410 c-123 226 -314 575 -425 778 -110 202 -203 367 -207 367 -4 0 -197
-348 -429 -774z m506 -131 c31 -60 58 -113 60 -117 2 -5 -57 -8 -132 -8 l-136
0 66 132 c49 98 68 128 75 117 6 -8 36 -63 67 -124z"/>
<path d="M7125 2018 c-231 -424 -421 -775 -423 -779 -2 -5 96 -9 217 -9 258 0
237 -9 289 124 30 77 37 87 65 94 33 8 507 6 544 -3 15 -3 41 -37 79 -101 31
-52 65 -99 75 -104 21 -12 442 -13 437 -2 -1 4 -52 98 -113 208 -60 109 -249
455 -421 769 -172 313 -316 570 -321 572 -4 1 -197 -345 -428 -769z m499 -122
c36 -69 66 -127 66 -130 0 -4 -60 -6 -133 -6 l-133 0 65 130 c36 71 67 130 68
130 1 0 31 -56 67 -124z"/>
<path d="M2050 760 c0 -25 4 -31 18 -28 11 2 17 12 17 28 0 16 -6 26 -17 28
-14 3 -18 -3 -18 -28z"/>
<path d="M3870 636 c0 -150 1 -156 20 -156 20 0 20 5 18 152 -3 136 -5 153
-20 156 -17 3 -18 -9 -18 -152z"/>
<path d="M4070 635 c0 -148 1 -155 20 -155 19 0 20 7 20 155 0 148 -1 155 -20
155 -19 0 -20 -7 -20 -155z"/>
<path d="M4587 784 c-4 -4 -7 -74 -7 -156 l0 -149 33 1 c17 0 46 -2 62 -6 82
-16 137 128 74 195 -25 27 -64 36 -94 23 -23 -11 -24 -10 -27 41 -2 37 -7 53
-18 55 -9 1 -19 0 -23 -4z m127 -146 c32 -45 9 -128 -34 -128 -31 0 -50 28
-50 75 0 69 51 101 84 53z"/>
<path d="M6037 765 c-5 -29 16 -46 35 -27 14 14 6 46 -13 50 -11 2 -18 -6 -22
-23z"/>
<path d="M9157 784 c-4 -4 -7 -74 -7 -156 l0 -148 24 0 c23 0 25 4 24 48 0
106 1 112 27 124 42 19 55 -2 55 -93 0 -78 0 -79 25 -79 24 0 25 2 25 75 0
116 -39 167 -106 136 -21 -9 -24 -8 -25 12 -3 73 -5 82 -19 85 -9 1 -19 0 -23
-4z"/>
<path d="M9488 783 c-11 -22 -2 -48 17 -48 15 0 20 7 20 25 0 24 -28 41 -37
23z"/>
<path d="M11557 784 c-4 -4 -7 -74 -7 -156 l0 -148 24 0 25 0 -2 152 c-2 129
-4 153 -17 156 -9 1 -19 0 -23 -4z"/>
<path d="M14217 765 c-5 -29 16 -46 35 -27 14 14 6 46 -13 50 -11 2 -18 -6
-22 -23z"/>
<path d="M10 625 c0 -138 1 -145 20 -145 19 0 20 7 20 145 0 138 -1 145 -20
145 -19 0 -20 -7 -20 -145z"/>
<path d="M3194 735 c-100 -106 -9 -298 121 -255 35 12 75 52 75 76 0 23 -29
16 -54 -13 -29 -34 -78 -36 -109 -4 -30 30 -32 138 -3 170 28 31 88 29 114 -4
22 -28 52 -33 52 -9 0 8 -13 29 -29 45 -25 25 -37 29 -82 29 -46 0 -55 -4 -85
-35z"/>
<path d="M7193 742 c-90 -83 -53 -246 60 -267 76 -14 157 63 157 150 0 42 -40
117 -70 132 -14 7 -46 13 -71 13 -37 0 -53 -6 -76 -28z m122 -18 c23 -9 45
-58 45 -101 0 -106 -110 -149 -156 -62 -23 45 -15 126 16 151 22 18 64 23 95
12z"/>
<path d="M10290 625 l0 -145 89 0 c67 0 90 3 94 14 9 22 -2 26 -75 26 l-68 0
0 125 c0 118 -1 125 -20 125 -19 0 -20 -7 -20 -145z"/>
<path d="M12550 625 l0 -145 25 0 25 0 0 145 0 145 -25 0 -25 0 0 -145z"/>
<path d="M1820 720 c0 -20 -5 -30 -15 -30 -8 0 -15 -7 -15 -15 0 -9 7 -18 15
-21 11 -5 15 -23 15 -75 0 -56 4 -73 20 -89 21 -21 29 -23 54 -14 23 9 20 34
-4 34 -20 0 -22 7 -22 75 0 65 2 73 19 71 10 0 19 7 21 17 2 12 -3 17 -17 17
-17 0 -21 6 -21 30 0 25 -4 30 -25 30 -21 0 -25 -5 -25 -30z"/>
<path d="M5810 720 c0 -20 -5 -30 -15 -30 -8 0 -15 -7 -15 -15 0 -9 7 -18 15
-21 11 -5 15 -24 15 -80 0 -67 2 -75 25 -90 27 -18 65 -11 65 12 0 8 -9 14
-19 14 -15 0 -20 9 -22 38 -6 58 4 107 21 107 8 0 16 8 18 18 2 12 -3 17 -17
17 -17 0 -21 6 -21 30 0 25 -4 30 -25 30 -21 0 -25 -5 -25 -30z"/>
<path d="M11761 738 c4 -31 -2 -48 -16 -48 -21 0 -19 -31 3 -36 13 -4 17 -14
15 -52 -5 -98 18 -142 67 -127 26 8 26 31 0 38 -17 4 -20 14 -20 70 0 57 3 67
20 72 11 3 20 13 20 21 0 8 -9 14 -20 14 -16 0 -20 7 -20 30 0 25 -4 30 -25
30 -15 0 -25 -5 -24 -12z"/>
<path d="M13100 720 c0 -23 -4 -30 -20 -30 -12 0 -20 -7 -20 -16 0 -9 9 -18
20 -21 18 -5 20 -14 20 -78 0 -89 18 -117 64 -99 22 9 20 31 -4 37 -17 4 -20
14 -20 71 0 37 4 67 10 67 6 1 16 2 22 3 7 0 14 9 16 19 3 13 -3 17 -22 17
-22 0 -26 4 -26 30 0 23 -4 30 -20 30 -16 0 -20 -7 -20 -30z"/>
<path d="M14430 720 c0 -23 -4 -30 -20 -30 -11 0 -20 -6 -20 -14 0 -8 9 -18
20 -21 18 -6 20 -15 20 -78 0 -40 4 -77 8 -83 10 -15 40 -24 57 -18 22 9 18
31 -5 37 -17 4 -20 14 -20 71 0 37 4 67 10 67 6 1 16 2 22 3 7 0 14 9 16 19 3
13 -3 17 -22 17 -22 0 -26 4 -26 30 0 23 -4 30 -20 30 -16 0 -20 -7 -20 -30z"/>
<path d="M272 684 c-12 -8 -22 -10 -22 -5 0 6 -9 11 -20 11 -19 0 -20 -7 -20
-105 l0 -105 26 0 c24 0 25 3 24 43 -4 101 -1 117 25 129 42 19 55 -2 55 -93
0 -78 0 -79 25 -79 24 0 25 2 25 75 0 47 -6 87 -15 104 -22 43 -63 53 -103 25z"/>
<path d="M616 693 c-4 -4 -22 -6 -40 -5 l-34 2 1 -105 c0 -103 0 -105 24 -105
22 0 23 3 23 74 0 93 24 125 70 96 14 -8 17 -32 20 -152 0 -11 8 -18 20 -18
18 0 20 7 20 85 0 78 -2 88 -25 110 -23 24 -64 33 -79 18z"/>
<path d="M925 691 c-41 -17 -59 -50 -59 -106 0 -43 5 -59 23 -79 47 -49 115
-42 152 16 55 89 -25 206 -116 169z m69 -47 c21 -21 21 -92 -1 -116 -36 -40
-83 -8 -83 58 0 46 19 74 50 74 10 0 26 -7 34 -16z"/>
<path d="M1530 688 c-32 -17 -40 -58 -12 -58 11 0 23 7 26 16 9 25 60 14 64
-13 3 -21 -1 -23 -36 -23 -53 0 -85 -27 -85 -70 0 -45 35 -74 78 -65 16 3 45
6 63 6 l32 -1 0 84 c0 65 -4 89 -17 105 -22 27 -80 36 -113 19z m80 -132 c0
-30 -22 -49 -52 -44 -50 7 -25 68 29 68 18 0 23 -6 23 -24z"/>
<path d="M2290 687 c-35 -17 -64 -79 -56 -121 9 -45 40 -83 74 -91 103 -22
164 125 83 197 -34 30 -62 35 -101 15z m74 -43 c21 -21 21 -92 -1 -116 -36
-40 -83 -8 -83 58 0 46 19 74 50 74 10 0 26 -7 34 -16z"/>
<path d="M2640 691 c-8 -6 -27 -7 -42 -4 l-28 6 0 -107 0 -106 25 0 c25 0 25
1 25 80 0 76 1 81 25 92 42 19 55 -2 55 -93 0 -78 0 -79 26 -79 l26 0 -4 91
c-3 81 -6 93 -27 110 -25 20 -57 24 -81 10z"/>
<path d="M3583 690 c-70 -28 -69 -176 2 -208 73 -33 135 18 135 110 -1 79 -66
126 -137 98z m77 -50 c38 -38 14 -130 -33 -130 -45 0 -73 80 -43 125 20 30 49
32 76 5z"/>
<path d="M4301 688 c-32 -17 -48 -58 -22 -58 10 0 24 7 31 16 20 23 64 14 68
-13 3 -21 -1 -23 -36 -23 -53 0 -85 -27 -85 -70 0 -58 62 -89 111 -54 12 8 22
10 22 5 0 -6 9 -11 21 -11 20 0 21 4 17 90 -2 64 -7 94 -19 105 -21 22 -79 28
-108 13z m79 -132 c0 -51 -72 -65 -78 -14 -3 27 7 34 56 37 17 1 22 -4 22 -23z"/>
<path d="M4961 687 c-70 -41 -67 -173 4 -205 14 -7 33 -12 41 -12 30 0 71 30
84 60 17 40 8 117 -17 141 -25 25 -81 33 -112 16z m83 -49 c22 -31 20 -84 -4
-108 -24 -24 -39 -25 -66 -6 -23 17 -27 94 -5 119 19 24 57 21 75 -5z"/>
<path d="M5312 684 c-12 -8 -22 -10 -22 -5 0 6 -9 11 -20 11 -19 0 -20 -7 -20
-105 0 -98 1 -105 20 -105 18 0 20 7 20 61 0 69 11 96 46 109 14 6 24 17 24
30 0 24 -17 26 -48 4z"/>
<path d="M5520 687 c-32 -16 -40 -57 -12 -57 11 0 23 7 26 16 9 25 60 14 64
-13 3 -21 -1 -23 -36 -23 -53 0 -85 -27 -85 -70 0 -58 62 -89 111 -54 12 8 22
10 22 5 0 -6 9 -11 20 -11 18 0 20 7 20 85 0 78 -2 88 -25 110 -27 28 -66 32
-105 12z m83 -132 c-7 -32 -26 -47 -55 -43 -53 7 -24 68 33 68 23 0 26 -3 22
-25z"/>
<path d="M6280 687 c-36 -17 -64 -79 -56 -122 17 -87 105 -120 164 -62 23 23
27 36 27 83 0 50 -3 58 -33 85 -35 31 -63 36 -102 16z m74 -43 c21 -21 21 -92
-1 -116 -36 -40 -83 -8 -83 58 0 46 19 74 50 74 10 0 26 -7 34 -16z"/>
<path d="M6630 691 c-8 -6 -27 -7 -42 -4 l-28 6 0 -107 0 -106 25 0 c25 0 25
1 25 80 0 70 2 81 20 90 12 6 30 8 40 5 18 -6 20 -16 20 -91 0 -84 0 -84 26
-84 l26 0 -4 91 c-3 81 -6 93 -27 110 -25 20 -57 24 -81 10z"/>
<path d="M8036 693 c-4 -4 -22 -6 -41 -5 l-35 3 0 -106 0 -105 25 0 c24 0 25
2 25 74 0 74 13 106 43 106 30 -1 39 -19 42 -91 2 -41 4 -77 4 -81 1 -5 10 -8
22 -8 20 0 21 4 17 91 -3 81 -6 93 -27 110 -23 19 -61 25 -75 12z"/>
<path d="M8333 689 c-26 -14 -53 -66 -53 -104 0 -69 58 -125 115 -111 27 7 65
39 65 56 0 16 -31 12 -51 -6 -23 -21 -65 -11 -74 17 -10 29 -3 32 65 30 45 -1
62 3 66 14 7 18 -13 80 -31 95 -20 16 -77 21 -102 9z m75 -41 c25 -25 13 -38
-33 -38 -30 0 -45 4 -45 13 0 19 21 37 45 37 12 0 26 -5 33 -12z"/>
<path d="M8678 684 c-16 -8 -28 -10 -28 -4 0 5 -9 10 -20 10 -19 0 -20 -7 -20
-106 0 -104 0 -105 23 -102 20 3 22 9 23 70 1 71 14 98 45 98 14 0 19 7 19 25
0 29 -5 30 -42 9z"/>
<path d="M8885 689 c-26 -16 -35 -29 -35 -55 0 -27 21 -44 74 -64 29 -11 41
-21 41 -35 0 -30 -48 -32 -74 -4 -27 29 -55 20 -40 -15 12 -26 47 -46 83 -46
36 0 76 37 76 69 0 34 -23 56 -75 73 -23 8 -40 19 -40 28 0 21 49 25 65 6 13
-17 50 -22 50 -7 0 40 -85 73 -125 50z"/>
<path d="M9767 693 c-4 -3 -23 -6 -42 -5 l-35 1 0 -144 c0 -138 1 -145 20
-145 17 0 20 7 20 44 l0 44 29 -11 c58 -22 113 29 115 107 1 24 -5 54 -13 68
-18 35 -75 60 -94 41z m45 -50 c37 -33 13 -133 -32 -133 -31 0 -50 28 -50 75
0 67 41 96 82 58z"/>
<path d="M10651 687 c-32 -19 -50 -54 -51 -100 -1 -104 99 -153 165 -81 38 41
37 127 -2 166 -25 25 -82 32 -112 15z m83 -49 c31 -44 9 -128 -33 -128 -35 0
-54 25 -55 72 -1 25 5 52 13 61 19 24 57 21 75 -5z"/>
<path d="M11256 677 c-14 -14 -26 -31 -26 -37 0 -16 36 -12 50 6 20 23 64 14
68 -13 3 -21 -1 -23 -36 -23 -81 0 -118 -65 -66 -117 20 -20 31 -24 57 -19 18
4 47 6 66 6 27 -1 32 2 27 15 -3 9 -6 49 -6 89 0 86 -11 105 -67 113 -35 5
-45 2 -67 -20z m94 -115 c0 -52 -71 -73 -78 -23 -4 28 12 41 51 41 19 0 27 -5
27 -18z"/>
<path d="M12822 684 c-12 -8 -22 -10 -22 -5 0 6 -9 11 -20 11 -19 0 -20 -7
-20 -105 0 -98 1 -105 20 -105 18 0 20 7 20 68 0 72 17 112 49 112 32 0 41
-22 41 -102 0 -71 2 -78 20 -78 19 0 20 7 20 89 0 85 -1 91 -26 110 -32 25
-52 26 -82 5z"/>
<path d="M13364 690 c-36 -14 -54 -50 -54 -107 0 -71 30 -108 90 -108 34 0 47
6 68 30 25 30 25 30 4 33 -12 2 -29 -4 -38 -12 -22 -22 -50 -20 -68 6 -9 12
-16 26 -16 30 0 5 32 8 70 8 l70 0 0 36 c0 66 -65 109 -126 84z m70 -46 c26
-26 18 -34 -34 -34 -27 0 -50 4 -50 9 0 16 31 41 50 41 10 0 26 -7 34 -16z"/>
<path d="M13666 678 c-48 -41 -52 -143 -6 -180 25 -21 80 -24 98 -6 9 9 12 8
12 -6 0 -34 -20 -56 -51 -56 -17 0 -32 6 -35 15 -6 16 -54 21 -54 6 0 -24 38
-53 77 -58 37 -5 46 -2 73 25 25 25 30 39 31 79 0 26 1 80 1 118 l2 70 -30 2
c-16 2 -43 6 -60 9 -24 4 -37 0 -58 -18z m85 -28 c15 -8 19 -21 19 -58 0 -53
-12 -72 -46 -72 -49 0 -72 70 -38 118 17 24 35 28 65 12z"/>
<path d="M14038 684 c-16 -8 -28 -10 -28 -4 0 5 -9 10 -20 10 -19 0 -20 -7
-20 -105 0 -98 1 -105 20 -105 11 0 20 3 21 8 1 4 2 35 4 70 3 66 16 92 46 92
14 0 19 7 19 25 0 29 -5 30 -42 9z"/>
<path d="M1185 671 c51 -162 62 -186 86 -189 22 -3 27 5 59 95 19 53 37 101
38 105 2 4 -7 8 -20 8 -21 0 -27 -10 -50 -77 l-25 -78 -24 78 c-20 68 -26 77
-47 77 -18 0 -22 -4 -17 -19z"/>
<path d="M2050 585 c0 -98 1 -105 20 -105 19 0 20 7 20 105 0 98 -1 105 -20
105 -19 0 -20 -7 -20 -105z"/>
<path d="M6037 683 c-2 -5 -3 -51 -2 -103 1 -90 2 -95 23 -98 22 -3 22 -1 22
102 0 98 -1 106 -19 106 -11 0 -22 -3 -24 -7z"/>
<path d="M7545 668 c3 -13 16 -59 29 -103 20 -70 26 -80 47 -83 23 -3 26 3 45
74 l20 77 19 -77 c18 -71 21 -77 44 -74 21 3 27 14 52 98 34 114 34 110 9 110
-15 0 -23 -12 -35 -57 -29 -102 -24 -104 -56 20 -8 29 -15 37 -32 37 -20 0
-25 -10 -43 -77 l-20 -78 -19 78 c-17 69 -21 77 -42 77 -19 0 -22 -4 -18 -22z"/>
<path d="M9482 608 c-1 -107 3 -128 28 -128 19 0 20 7 20 105 0 103 0 105 -23
105 -23 0 -24 -3 -25 -82z"/>
<path d="M10920 682 c0 -5 16 -53 35 -107 38 -104 38 -131 -1 -141 -29 -8 -34
-44 -5 -44 53 0 65 20 122 187 l38 113 -23 0 c-20 0 -26 -10 -47 -80 l-24 -79
-26 77 c-20 61 -30 78 -47 80 -12 2 -22 -1 -22 -6z"/>
<path d="M11980 682 c0 -4 16 -54 35 -111 18 -56 32 -108 29 -116 -3 -7 -19
-18 -35 -24 -20 -7 -27 -15 -23 -25 9 -23 50 -20 73 6 17 17 101 244 101 271
0 4 -9 7 -20 7 -16 0 -24 -14 -42 -75 -12 -41 -25 -72 -29 -67 -3 4 -16 37
-29 75 -17 52 -26 67 -41 67 -10 0 -19 -4 -19 -8z"/>
<path d="M14218 595 c-4 -111 -3 -115 23 -115 18 0 19 8 19 105 0 97 -1 105
-19 105 -18 0 -20 -9 -23 -95z"/>
<path d="M14640 684 c0 -4 16 -52 36 -107 29 -82 34 -104 25 -123 -6 -14 -19
-24 -31 -24 -13 0 -20 -7 -20 -20 0 -14 7 -20 24 -20 45 0 65 30 110 168 44
131 44 132 22 132 -20 0 -26 -10 -47 -82 l-23 -82 -25 79 c-21 66 -30 81 -48
83 -13 2 -23 0 -23 -4z"/>
<path d="M2902 588 c3 -20 9 -23 43 -22 64 3 65 3 65 24 0 18 -7 20 -56 20
-52 0 -55 -1 -52 -22z"/>
<path d="M6892 588 c3 -23 7 -23 86 -19 15 1 22 7 22 21 0 18 -7 20 -56 20
-51 0 -55 -2 -52 -22z"/>
<path d="M10022 588 c3 -20 9 -23 53 -23 44 0 50 3 53 23 3 20 0 22 -53 22
-53 0 -56 -2 -53 -22z"/>
<path d="M12292 588 c3 -20 9 -22 48 -21 25 1 48 2 53 2 4 1 7 10 7 21 0 18
-7 20 -56 20 -51 0 -55 -2 -52 -22z"/>
</g>
</svg>
