<?xml version="1.0" encoding="utf-8"?>
<!-- Generator: Adobe Illustrator 26.5.0, SVG Export Plug-In . SVG Version: 6.00 Build 0)  -->
<svg version="1.1" id="Layer_1" xmlns="http://www.w3.org/2000/svg" xmlns:xlink="http://www.w3.org/1999/xlink" x="0px" y="0px"
	 viewBox="0 0 700 700" style="enable-background:new 0 0 700 700;" xml:space="preserve">
<g>
	<path d="M195.7,321.6c2.2,3.3,3.3,7.7,1.1,10.9c-2.2,3.3-5.5,6.6-9.8,6.6h-37.2V478c0,5.5-4.4,10.9-10.9,10.9l-79.8,0
		c-5.5,0-10.9-5.5-10.9-10.9l0-138.9H11.9c-4.4,0-7.7-2.2-9.8-6.6c-2.2-3.3-1.1-8.8,1.1-10.9l87.5-113.8c4.4-5.5,13.1-5.5,17.5,0
		L195.7,321.6z"/>
	<path d="M430.8,72.2c0,39.4-32.8,72.2-72.2,72.2c-40.5,0-72.2-32.8-72.2-72.2S319.3,0,358.6,0C398,0,430.8,32.8,430.8,72.2z"/>
	<path d="M430.8,72.2c0,39.4-32.8,72.2-72.2,72.2c-40.5,0-72.2-32.8-72.2-72.2S319.3,0,358.6,0C398,0,430.8,32.8,430.8,72.2z"/>
	<path d="M697.7,150.9c-2.2,3.3-5.5,5.5-9.8,5.5h-37.2v138.9c0,5.5-5.5,10.9-10.9,10.9h-79.8c-5.5,0-10.9-5.5-10.9-10.9V156.4h-37.2
		c-4.4,0-7.7-2.2-9.8-5.5c-2.2-3.3-1.1-8.8,1.1-12l87.5-113.8c4.4-5.5,13.1-5.5,17.5,0l87.5,113.8
		C699.9,142.2,699.9,146.6,697.7,150.9L697.7,150.9z"/>
	<path d="M488.8,240.6v128c0,23-16.4,42.7-36.1,42.7h-5.5v201.2c0,5.5-5.5,10.9-10.9,10.9h-72.2V444.1c0-6.6-5.5-10.9-10.9-10.9
		c-5.5,0-10.9,4.4-10.9,10.9v180.5H270c-6.6,0-10.9-5.5-10.9-10.9l0-202.3h-5.5c-19.7,0-36.1-18.6-36.1-42.7v-128
		c0-48.1,32.8-88.6,73.3-88.6h19.7c14.2,8.8,30.6,14.2,49.2,14.2c18.6,0,33.9-5.5,49.2-14.2h6.6C456,153.1,488.8,192.5,488.8,240.6
		L488.8,240.6z"/>
	<path d="M563.2,613.6c0,49.2-90.8,86.4-210,86.4c-102.8,0-211.1-30.6-211.1-86.4c0-31.7,35-58,94.1-73.3v23
		c-43.7,12-72.2,31.7-72.2,50.3c0,30.6,77.7,64.5,188.1,64.5c110.5,0,188.1-33.9,188.1-64.5c0-18.6-28.4-38.3-72.2-50.3v-23
		C528.2,555.6,563.2,581.9,563.2,613.6L563.2,613.6z"/>
</g>
</svg>
