<?xml version="1.0" encoding="utf-8"?>
<!-- Generator: Adobe Illustrator 26.5.0, SVG Export Plug-In . SVG Version: 6.00 Build 0)  -->
<svg version="1.1" id="Layer_1" xmlns="http://www.w3.org/2000/svg" xmlns:xlink="http://www.w3.org/1999/xlink" x="0px" y="0px"
	 viewBox="0 0 700 700" style="enable-background:new 0 0 700 700;" xml:space="preserve">
<g>
	<path d="M337.5,165l-45-165h-23.3l56.6,207.6L337.5,165z"/>
	<path d="M430.8,0h-23.3l-65.8,241.4h23.3L430.8,0z"/>
	<path d="M350,362.1c16.7,0,32.9,2.5,48.3,6.7v-55h-96.6v55C317.1,364.5,333.3,362.1,350,362.1z"/>
	<path d="M438.2,241.4h23.3L527.3,0H504L438.2,241.4z"/>
	<path d="M205.2,265.5h289.7v24.1H205.2V265.5z"/>
	<path d="M413.2,241.4L479,0h-23.3l-65.8,241.4H413.2z"/>
	<path d="M458.6,543.1c0,60-48.6,108.6-108.6,108.6s-108.6-48.6-108.6-108.6S290,434.5,350,434.5S458.6,483.1,458.6,543.1"/>
	<path d="M310.1,241.4L244.2,0H221l65.8,241.4H310.1z"/>
	<path d="M350,386.2c-86.5,0-156.9,70.4-156.9,156.9S263.5,700,350,700s156.9-70.4,156.9-156.9S436.5,386.2,350,386.2z M350,675.9
		c-73.2,0-132.8-59.6-132.8-132.8S276.8,410.3,350,410.3s132.8,59.6,132.8,132.8S423.2,675.9,350,675.9z"/>
	<path d="M261.8,241.4L196,0h-23.3l65.8,241.4H261.8z"/>
	<path d="M96.6,337.9h24.1v24.1H96.6V337.9z"/>
	<path d="M96.6,386.2h24.1v24.1H96.6V386.2z"/>
	<path d="M120.7,362.1h24.1v24.1h-24.1V362.1z"/>
	<path d="M72.4,362.1h24.1v24.1H72.4V362.1z"/>
	<path d="M579.3,398.3h24.1v24.1h-24.1V398.3z"/>
	<path d="M579.3,446.6h24.1v24.1h-24.1V446.6z"/>
	<path d="M603.4,422.4h24.1v24.1h-24.1V422.4z"/>
	<path d="M555.2,422.4h24.1v24.1h-24.1V422.4z"/>
	<path d="M579.3,132.8h24.1v24.1h-24.1V132.8z"/>
	<path d="M579.3,181h24.1v24.1h-24.1V181z"/>
	<path d="M603.4,156.9h24.1V181h-24.1V156.9z"/>
	<path d="M555.2,156.9h24.1V181h-24.1V156.9z"/>
	<path d="M108.6,543.1h24.1v24.1h-24.1V543.1z"/>
	<path d="M108.6,591.4h24.1v24.1h-24.1V591.4z"/>
	<path d="M132.8,567.2h24.1v24.1h-24.1V567.2z"/>
	<path d="M84.5,567.2h24.1v24.1H84.5V567.2z"/>
</g>
</svg>
