<?xml version="1.0" encoding="utf-8"?>
<!-- Generator: Adobe Illustrator 26.5.0, SVG Export Plug-In . SVG Version: 6.00 Build 0)  -->
<svg version="1.1" id="Layer_1" xmlns="http://www.w3.org/2000/svg" xmlns:xlink="http://www.w3.org/1999/xlink" x="0px" y="0px"
	 viewBox="0 0 700 700" style="enable-background:new 0 0 700 700;" xml:space="preserve">
<g>
	<path d="M640.1,522.1L529.4,632.9V700H374.8l0.4-85.7c0.1-41.6,16.7-81.6,46.1-111.1l95.1-94.8c6.4-6.4,15.1-9.7,24.1-9.3
		c9,0.4,17.4,4.6,23.1,11.6c5,6.4,7.4,14.4,6.8,22.4c-0.6,8.1-4.1,15.6-9.9,21.3L514.9,500c-2.2,2.2-3.3,5.2-3,8.3
		c0.2,3.1,1.8,5.9,4.3,7.7c4.5,3.2,10.6,2.5,14.3-1.5l52.4-52.4h0c7.5-7.5,11.5-17.9,10.9-28.6l-8.1-121.8
		c-0.6-11.7,5.1-22.8,14.9-29.2c9.8-6.4,22.2-7.2,32.7-2.1c10.5,5.1,17.5,15.4,18.4,27.1l11.6,153.5
		C664.8,483.8,656.3,506.1,640.1,522.1L640.1,522.1z M278.5,503.2l-95.1-94.8c-6.4-6.4-15.1-9.7-24.1-9.3c-9,0.4-17.4,4.6-23.1,11.6
		c-5,6.4-7.4,14.4-6.8,22.4c0.6,8.1,4.1,15.6,9.9,21.3l45.6,45.6c2.2,2.2,3.3,5.2,3,8.3c-0.2,3.1-1.8,5.9-4.3,7.7
		c-4.5,3.2-10.6,2.5-14.3-1.5L117,462.1h0c-7.5-7.5-11.5-17.9-10.9-28.6l8.1-121.4c0.6-11.7-5.1-22.8-14.9-29.2
		c-9.8-6.4-22.2-7.2-32.7-2.1C56.1,286,49,296.3,48.1,307.9L36.8,461.1c-1.6,22.7,6.8,44.9,22.9,61l110.7,110.7V700H325l-0.4-85.7
		C324.4,572.6,307.8,532.7,278.5,503.2L278.5,503.2z M384.6,375.9h51c12-0.5,22.9-7.3,28.7-17.8c5.9-10.5,5.9-23.3,0-33.8
		c-5.9-10.5-16.7-17.2-28.7-17.8h-51v-51.3c-0.5-12-7.3-22.9-17.8-28.7c-10.5-5.9-23.3-5.9-33.8,0c-10.5,5.9-17.2,16.7-17.8,28.7
		v51.2h-51.1c-12,0.5-22.9,7.3-28.7,17.8c-5.9,10.5-5.9,23.3,0,33.8c5.9,10.5,16.7,17.2,28.7,17.8h51.2v51.3
		c-0.4,9.5,3,18.7,9.6,25.6c6.5,6.9,15.6,10.7,25.1,10.7s18.5-3.9,25.1-10.7c6.5-6.9,10-16.1,9.6-25.6L384.6,375.9z M276.9,196.2
		c0-6.8-2.7-13.3-7.5-18c-4.8-4.8-11.3-7.5-18-7.5h-37.7V133c0-9.1-4.9-17.5-12.8-22.1c-7.9-4.6-17.6-4.6-25.5,0
		c-7.9,4.6-12.8,13-12.8,22.1v37.7H125c-9.1,0-17.5,4.9-22.1,12.8c-4.6,7.9-4.6,17.6,0,25.5c4.6,7.9,13,12.8,22.1,12.8h37.7v37.7h0
		c0,9.1,4.9,17.5,12.8,22.1c7.9,4.6,17.6,4.6,25.5,0c7.9-4.6,12.8-13,12.8-22.1v-38h37.7c6.7,0,13.1-2.7,17.9-7.4
		C274.1,209.3,276.8,202.9,276.9,196.2L276.9,196.2z M458.4,227.4h32.4v32.4h0c0,7.8,4.2,15.1,11,19c6.8,3.9,15.1,3.9,21.9,0
		c6.8-3.9,11-11.2,11-19v-32.4h32.4c7.8,0,15.1-4.2,19-11c3.9-6.8,3.9-15.2,0-22c-3.9-6.8-11.2-11-19-11h-32.4v-32.4
		c0-7.8-4.2-15.1-11-19c-6.8-3.9-15.1-3.9-21.9,0c-6.8,3.9-11,11.2-11,19v32.4h-32.5c-7.8,0-15.1,4.2-19,11c-3.9,6.8-3.9,15.2,0,22
		C443.3,223.2,450.6,227.4,458.4,227.4L458.4,227.4z M374.8,0c-5.8,0-11.4,2.3-15.5,6.4c-4.1,4.1-6.4,9.7-6.4,15.5v32.4h-32.4
		c-7.8,0-15.1,4.2-19,11c-3.9,6.8-3.9,15.1,0,21.9c3.9,6.8,11.2,11,19,11h32.4l0,32.5c0,7.8,4.2,15.1,11,19c6.8,3.9,15.1,3.9,21.9,0
		c6.8-3.9,11-11.2,11-19V98.3h32.4c7.8,0,15.1-4.2,19-11c3.9-6.8,3.9-15.1,0-21.9c-3.9-6.8-11.2-11-19-11h-32.4V21.9
		c0-5.8-2.3-11.4-6.4-15.5C386.3,2.3,380.7,0,374.8,0L374.8,0z"/>
</g>
</svg>
