<?xml version="1.0" encoding="utf-8"?>
<!-- Generator: Adobe Illustrator 26.5.0, SVG Export Plug-In . SVG Version: 6.00 Build 0)  -->
<svg version="1.1" id="Layer_1" xmlns="http://www.w3.org/2000/svg" xmlns:xlink="http://www.w3.org/1999/xlink" x="0px" y="0px"
	 viewBox="0 0 700 700" style="enable-background:new 0 0 700 700;" xml:space="preserve">
<style type="text/css">
	.st0{fill:#80202B;}
	.st1{fill:#9E9E9E;}
	.st2{fill:#282759;}
</style>
<g>
	<path class="st0" d="M512.5,575h25v-42.3l-25-12.5V575z"/>
	<path class="st1" d="M150,625h200V450H150V625z M187.5,525h14.1c1.2-4.5,3-8.9,5.3-12.8l-15.8-15.8l17.7-17.7l15.8,15.8
		c4.1-2.3,8.3-4.2,12.8-5.3v-14.1h25v14.1c4.5,1.2,8.9,3,12.8,5.3l15.8-15.8l17.7,17.7l-15.8,15.8c2.3,4.1,4.2,8.3,5.3,12.8h14.1v25
		h-14.1c-1.2,4.5-3,8.9-5.3,12.8l15.8,15.8l-17.7,17.7l-15.8-15.8c-4.1,2.3-8.3,4.2-12.8,5.3v14.1h-25v-14.1
		c-4.5-1.2-8.9-3-12.8-5.3l-15.8,15.8l-17.7-17.7l15.8-15.8c-2.3-4.1-4.2-8.3-5.3-12.8h-14.1L187.5,525z"/>
	<path class="st1" d="M150,325h200V150H150V325z M200,275c0-15.8,7.5-30.6,20-40c-12.5-16.6-9.1-40,7.5-52.5
		c16.6-12.5,40-9.1,52.5,7.5c10,13.3,10,31.7,0,45c12.7,9.4,20,24.2,20,40v25H200V275z"/>
	<path class="st2" d="M275,537.5c0,13.8-11.2,25-25,25s-25-11.2-25-25s11.2-25,25-25S275,523.7,275,537.5"/>
	<path class="st0" d="M262.5,212.5c0,6.9-5.6,12.5-12.5,12.5s-12.5-5.6-12.5-12.5S243.1,200,250,200S262.5,205.6,262.5,212.5"/>
	<path class="st0" d="M250,250c-13.8,0-25,11.2-25,25h50C275,261.2,263.8,250,250,250z"/>
	<path class="st0" d="M62.5,625c6.9,0,12.5-5.6,12.5-12.5v-600C75,5.6,69.4,0,62.5,0H25C11.2,0,0,11.2,0,25v606.7
		c7.7-4.4,16.2-6.7,25-6.7L62.5,625z"/>
	<path class="st2" d="M687.5,75H100v537.5c0,20.6-16.9,37.5-37.5,37.5H25c-13.8,0-25,11.2-25,25s11.2,25,25,25h662.5
		c6.9,0,12.5-5.6,12.5-12.5v-600C700,80.6,694.4,75,687.5,75z M675,350H562.5v75H675v225H425V537.5h-50V650H125V425h250v87.5h50V425
		h112.5v-75H425v-87.5h-50V350H125V125h250v112.5h50V125h250V350z"/>
	<path class="st1" d="M650,150H450v175h200V150z M625,300H475v-25h12.5v-75h25v75h25v-87.5h25V275h25V175h25v100H625V300z"/>
	<path class="st1" d="M450,625h200V450H450V625z M475,575h12.5v-95.2l50,25v-25l37.5,18.8V475h25v36.1l12.5,6.3V575H625v25H475V575z
		"/>
	<path class="st0" d="M562.5,575h25v-42.3l-25-12.5V575z"/>
</g>
</svg>
