<?xml version="1.0" encoding="utf-8"?>
<!-- Generator: Adobe Illustrator 26.5.0, SVG Export Plug-In . SVG Version: 6.00 Build 0)  -->
<svg version="1.1" id="Layer_1" xmlns="http://www.w3.org/2000/svg" xmlns:xlink="http://www.w3.org/1999/xlink" x="0px" y="0px"
	 viewBox="0 0 700 700" style="enable-background:new 0 0 700 700;" xml:space="preserve">
<g>
	<path d="M350,517.9c-60,0-108.8,48.8-108.8,108.8v9.9c31.7,19.5,68.9,31,108.8,31s77.1-11.5,108.8-31v-9.9
		C458.8,566.7,410,517.9,350,517.9L350,517.9z"/>
	<path d="M400,391.3c0,27.6-22.4,50-50,50c-27.6,0-50-22.4-50-50c0-27.6,22.4-50,50-50C377.6,341.3,400,363.7,400,391.3"/>
	<path d="M350,250.8c-114.9,0-208.4,93.5-208.4,208.4c0,67.4,32.3,127.2,82.1,165.4c1.2-68.7,57.4-124.3,126.4-124.3
		s125.2,55.6,126.4,124.3c49.8-38.1,82.1-98,82.1-165.4C558.4,344.3,464.9,250.8,350,250.8L350,250.8z M350,459
		c-37.3,0-67.6-30.4-67.6-67.6s30.4-67.6,67.6-67.6s67.6,30.4,67.6,67.6S387.3,459,350,459z"/>
	<path d="M161.8,178.4c20,0,36.3-16.3,36.3-36.2c0-20-16.3-36.3-36.3-36.3s-36.3,16.3-36.3,36.3S141.8,178.4,161.8,178.4z"/>
	<path d="M538.2,105.9c-20,0-36.2,16.3-36.2,36.3s16.3,36.2,36.2,36.2c20,0,36.2-16.3,36.2-36.2
		C574.5,122.2,558.2,105.9,538.2,105.9L538.2,105.9z"/>
	<path d="M229.5,268.2c-12.3-16.4-31.9-27-53.9-27h-27.7c-37.2,0-67.5,30.3-67.5,67.5v25.1c20.6,12,44,19.7,68.9,21.6
		C167.9,319.7,195.7,289.7,229.5,268.2L229.5,268.2z"/>
	<path d="M147.9,223.5h27.7c28.5,0,53.7,14.1,69.2,35.7c22.4-11.8,47.1-19.9,73.1-23.6c3.6-13.3,5.6-27.1,5.6-41.5
		c0-89.2-72.6-161.8-161.8-161.8C72.6,32.4,0,105,0,194.2c0,51.9,24.7,98,62.8,127.7v-13.2C62.8,261.7,101,223.5,147.9,223.5
		L147.9,223.5z M161.8,88.3c29.7,0,53.9,24.2,53.9,53.9c0,29.7-24.2,53.9-53.9,53.9c-29.7,0-53.9-24.2-53.9-53.9
		S132,88.3,161.8,88.3L161.8,88.3z"/>
	<path d="M538.2,32.4c-89.2,0-161.8,72.6-161.8,161.8c0,14.4,2.1,28.2,5.6,41.5c26,3.7,50.7,11.7,73.1,23.6
		c15.5-21.6,40.7-35.7,69.2-35.7h27.7c46.9,0,85.1,38.2,85.1,85.1v13.2c38.1-29.6,62.8-75.8,62.8-127.7
		C700,105,627.4,32.4,538.2,32.4L538.2,32.4z M538.2,196.1c-29.7,0-53.9-24.2-53.9-53.9s24.2-53.9,53.9-53.9s53.9,24.2,53.9,53.9
		C592.1,171.9,568,196.1,538.2,196.1L538.2,196.1z"/>
	<path d="M552.1,241.2h-27.7c-22,0-41.6,10.7-53.9,27c33.8,21.4,61.6,51.5,80.1,87.2c25-1.9,48.4-9.6,68.9-21.7v-25.1
		C619.6,271.4,589.3,241.2,552.1,241.2L552.1,241.2z"/>
</g>
</svg>
