<?xml version="1.0" encoding="utf-8"?>
<!-- Generator: Adobe Illustrator 26.5.0, SVG Export Plug-In . SVG Version: 6.00 Build 0)  -->
<svg version="1.1" id="Layer_1" xmlns="http://www.w3.org/2000/svg" xmlns:xlink="http://www.w3.org/1999/xlink" x="0px" y="0px"
	 viewBox="0 0 700 700" style="enable-background:new 0 0 700 700;" xml:space="preserve">
<style type="text/css">
	.st0{fill:#9E9E9E;}
	.st1{fill:#80202B;}
	.st2{fill:#282759;}
</style>
<g>
	<path class="st0" d="M493,307.5l-23.7-31.2c5.1-9.1,9-18.8,11.9-28.9l38.9-5.3c5.6-0.8,9.8-5.5,9.8-11.1v-42.1
		c0-5.6-4.2-10.3-9.8-11.1l-38.9-5.3c-2.9-10.2-6.9-19.9-11.9-28.9l23.7-31.2c3.4-4.5,3-10.8-1-14.7l-29.8-29.8
		c-3.9-3.9-10.2-4.4-14.7-1l-31.2,23.7c-9.1-5.1-18.8-9-28.9-11.9l-5.3-38.9c-0.8-5.6-5.5-9.8-11.1-9.8h-42.1
		c-5.6,0-10.3,4.2-11.1,9.8l-5.3,38.9c-10.2,2.9-19.9,6.9-28.9,11.9l-31.2-23.7c-4.5-3.4-10.8-3-14.7,1l-29.8,29.8
		c-3.9,3.9-4.4,10.2-1,14.7l23.7,31.2c-5.1,9.1-9,18.8-11.9,28.9l-38.9,5.3c-5.6,0.8-9.8,5.5-9.8,11.1V231c0,5.6,4.2,10.3,9.8,11.1
		l38.9,5.3c2.9,10.2,6.9,19.9,11.9,28.9l-23.7,31.2c-3.4,4.5-3,10.8,1,14.7l29.7,29.8c3.9,3.9,10.2,4.4,14.7,1l31.2-23.7
		c9.1,5.1,18.8,9,28.9,11.9l5.3,38.9c0.8,5.6,5.5,9.8,11.1,9.8h42.1c5.6,0,10.3-4.2,11.1-9.8l5.3-38.9c10.2-2.9,19.9-6.9,28.9-11.9
		l31.2,23.7c4.5,3.4,10.8,3,14.7-1l29.8-29.8C496,318.3,496.5,312,493,307.5L493,307.5z M349.9,285.8c-42,0-75.9-34-75.9-75.9
		s34-75.9,75.9-75.9s75.9,34,75.9,75.9C425.7,251.8,391.7,285.8,349.9,285.8z"/>
	<path class="st1" d="M143.1,394.9c0,13.5,11,24.5,24.5,24.5h53L143.1,342V394.9z"/>
	<path class="st2" d="M602.4,319.5h22.5V206.4c0-6.2-5.1-11.3-11.3-11.3h-61.3v22.5h50.1L602.4,319.5z"/>
	<path class="st1" d="M532.4,419.5c13.5,0,24.5-11,24.5-24.5v-53l-77.5,77.5H532.4z"/>
	<path class="st1" d="M674.3,342h-94.8v53c0,25.9-21.2,47-47,47l-53,0v133.2c0,13.5,11,24.5,24.5,24.5h170.3
		c13.5,0,24.5-11,24.5-24.5l0-208.7C698.8,352.9,687.7,342,674.3,342L674.3,342z M620.9,374c16,0,28.8,12.9,28.8,28.8
		c0,15.9-12.9,28.8-28.8,28.8s-28.8-12.9-28.8-28.8C592.1,387,604.9,374,620.9,374z M649.7,567.9H528.4c-6.2,0-11.3-5.1-11.3-11.3
		c0-6.2,5.1-11.3,11.3-11.3h121.3c6.2,0,11.3,5.1,11.3,11.3C661,562.8,655.9,567.9,649.7,567.9z M649.7,526.3H528.4
		c-6.2,0-11.3-5.1-11.3-11.3c0-6.2,5.1-11.3,11.3-11.3h121.3c6.2,0,11.3,5.1,11.3,11.3C661,521.2,655.9,526.3,649.7,526.3z
		 M649.7,484.6H528.4c-6.2,0-11.3-5.1-11.3-11.3c0-6.2,5.1-11.3,11.3-11.3h121.3c6.2,0,11.3,5.1,11.3,11.3
		C661,479.6,655.9,484.6,649.7,484.6z"/>
	<path class="st2" d="M97.6,217.6h49.7v-22.5h-61c-6.2,0-11.3,5.1-11.3,11.3v113h22.5L97.6,217.6z"/>
	<path class="st1" d="M120.6,394.9v-53l-94.8,0c-13.5,0-24.5,11-24.5,24.5v208.7c0,13.5,11,24.5,24.5,24.5h170.3
		c13.5,0,24.5-11,24.5-24.5l0-133.2h-53C141.6,442,120.6,420.8,120.6,394.9L120.6,394.9z M79.1,374c16,0,28.8,12.9,28.8,28.8
		s-12.9,28.8-28.8,28.8s-28.8-12.9-28.8-28.8C50.3,387,63.2,374,79.1,374z M171.6,567.9H50.3c-6.2,0-11.3-5.1-11.3-11.3
		c0-6.2,5.1-11.3,11.3-11.3h121.3c6.2,0,11.3,5.1,11.3,11.3C182.8,562.8,177.7,567.9,171.6,567.9z M171.6,526.3H50.3
		c-6.2,0-11.3-5.1-11.3-11.3c0-6.2,5.1-11.3,11.3-11.3h121.3c6.2,0,11.3,5.1,11.3,11.3C182.8,521.2,177.7,526.3,171.6,526.3z
		 M182.8,473.4c0,6.2-5.1,11.3-11.3,11.3H50.3c-6.2,0-11.3-5.1-11.3-11.3s5.1-11.3,11.3-11.3h121.3
		C177.7,462.1,182.8,467.1,182.8,473.4z"/>
	<path class="st1" d="M338.6,412.4h22.5v83.1h-22.5V412.4z"/>
	<path class="st2" d="M415.8,518h-132c-13.5,0-24.5,11-24.5,24.5v102.9c0,13.5,11,24.5,24.5,24.5h132c13.5,0,24.5-11,24.5-24.5
		V542.6C440.3,529.1,429.3,518,415.8,518L415.8,518z M365.9,630.9h-65c-6.2,0-11.3-5.1-11.3-11.3c0-6.2,5.1-11.3,11.3-11.3h65
		c6.2,0,11.3,5.1,11.3,11.3C377.1,625.8,372.1,630.9,365.9,630.9z M398.9,579.7h-98.1c-6.2,0-11.3-5.1-11.3-11.3s5.1-11.3,11.3-11.3
		h98.1c6.2,0,11.3,5.1,11.3,11.3C410.2,574.6,405.1,579.7,398.9,579.7z"/>
</g>
</svg>
