<?xml version="1.0" encoding="utf-8"?>
<!-- Generator: Adobe Illustrator 26.5.0, SVG Export Plug-In . SVG Version: 6.00 Build 0)  -->
<svg version="1.1" id="Layer_1" xmlns="http://www.w3.org/2000/svg" xmlns:xlink="http://www.w3.org/1999/xlink" x="0px" y="0px"
	 viewBox="0 0 700 700" style="enable-background:new 0 0 700 700;" xml:space="preserve">
<g>
	<path d="M420,490c0,38.7-31.3,70-70,70s-70-31.3-70-70s31.3-70,70-70S420,451.3,420,490"/>
	<path d="M350,0c-92.8,0-181.8,36.9-247.5,102.5C36.9,168.1,0,257.2,0,350s36.9,181.8,102.5,247.5C168.1,663.1,257.2,700,350,700
		s181.8-36.9,247.5-102.5C663.1,531.9,700,442.8,700,350c0-61.4-16.2-121.8-46.9-175C622.4,121.8,578.2,77.6,525,46.9
		C471.8,16.2,411.4,0,350,0L350,0z M420,210c0,18.6-7.4,36.4-20.5,49.5C386.4,272.6,368.6,280,350,280s-36.4-7.4-49.5-20.5
		C287.4,246.4,280,228.6,280,210s7.4-36.4,20.5-49.5c13.1-13.1,30.9-20.5,49.5-20.5s36.4,7.4,49.5,20.5
		C412.6,173.6,420,191.4,420,210z M350,630c-74.3,0-145.5-29.5-198-82S70,424.3,70,350s29.5-145.5,82-198s123.7-82,198-82
		c-50,0-96.2,26.7-121.2,70c-25,43.3-25,96.7,0,140c25,43.3,71.2,70,121.2,70s96.2,26.7,121.2,70c25,43.3,25,96.7,0,140
		C446.2,603.3,400,630,350,630L350,630z"/>
</g>
</svg>
